<svg width="24" height="24" viewBox="0 0 24 24" fill="none" xmlns="http://www.w3.org/2000/svg">
<g clip-path="url(#clip0_0_412)">
<path fill-rule="evenodd" clip-rule="evenodd" d="M19.0711 4.92901C15.1658 1.02366 8.83436 1.02366 4.92901 4.92901C1.02366 8.83436 1.02366 15.1658 4.92901 19.0711C8.83436 22.9765 15.1658 22.9765 19.0711 19.0711C22.9765 15.1658 22.9765 8.83436 19.0711 4.92901ZM9.00336 8.99771C9.0034 9.26287 9.10876 9.51716 9.29626 9.70466C9.48375 9.89216 9.73805 9.99751 10.0032 9.99755L12.5891 9.99685L8.29272 14.2932C8.10518 14.4808 7.99983 14.7351 7.99983 15.0003C7.99983 15.2656 8.10518 15.5199 8.29272 15.7074C8.48026 15.895 8.73461 16.0003 8.99983 16.0003C9.26504 16.0003 9.5194 15.895 9.70693 15.7074L14.0033 11.4111V13.9977C14.0034 14.2629 14.1089 14.5173 14.2965 14.7048C14.4842 14.8923 14.7386 14.9976 15.0039 14.9975C15.2691 14.9974 15.5235 14.8919 15.711 14.7043C15.8985 14.5167 16.0038 14.2622 16.0037 13.997L16.003 8.997C16.003 8.73183 15.8976 8.47754 15.7101 8.29004C15.5226 8.10254 15.2683 7.99719 15.0032 7.99715L10.0046 7.99644C9.87321 7.99637 9.74307 8.0222 9.62164 8.07246C9.50022 8.12271 9.38989 8.19641 9.29696 8.28934C9.20404 8.38226 9.13034 8.49259 9.08008 8.61402C9.02983 8.73544 9.004 8.86558 9.00407 8.997L9.00336 8.99771Z" fill="#101010"/>
</g>
<defs>
<clipPath id="clip0_0_412">
<rect width="24" height="24" fill="white"/>
</clipPath>
</defs>
</svg>
