<svg width="24" height="24" viewBox="0 0 24 24" fill="none" xmlns="http://www.w3.org/2000/svg">
<g clip-path="url(#clip0_0_124)">
<path fill-rule="evenodd" clip-rule="evenodd" d="M12 4.99891C11.7551 4.99888 11.5187 4.90896 11.3356 4.7462C11.1526 4.58344 11.0357 4.35916 11.007 4.11591L11 3.99891L11 2.99891C11.0003 2.74403 11.0979 2.49888 11.2728 2.31354C11.4478 2.12821 11.687 2.01668 11.9414 2.00174C12.1958 1.9868 12.4464 2.06959 12.6418 2.23318C12.8373 2.39677 12.9629 2.62882 12.993 2.88191L13 2.99891L13 3.99891C13 4.26413 12.8946 4.51848 12.7071 4.70602C12.5196 4.89356 12.2652 4.99891 12 4.99891ZM16.95 7.04891C16.7625 6.86138 16.6572 6.60708 16.6572 6.34191C16.6572 6.07675 16.7625 5.82244 16.95 5.63491L17.657 4.92791C17.7492 4.8324 17.8596 4.75622 17.9816 4.70381C18.1036 4.6514 18.2348 4.62382 18.3676 4.62266C18.5004 4.62151 18.6321 4.64681 18.755 4.69709C18.8779 4.74737 18.9895 4.82162 19.0834 4.91552C19.1773 5.00941 19.2515 5.12106 19.3018 5.24396C19.3521 5.36686 19.3774 5.49853 19.3763 5.63131C19.3751 5.76409 19.3475 5.89531 19.2951 6.01732C19.2427 6.13932 19.1665 6.24967 19.071 6.34191L18.364 7.04891C18.1765 7.23638 17.9222 7.3417 17.657 7.3417C17.3918 7.3417 17.1375 7.23638 16.95 7.04891ZM5.636 7.04891L4.929 6.34191C4.74684 6.15331 4.64605 5.90071 4.64833 5.63851C4.65061 5.37631 4.75578 5.1255 4.94118 4.94009C5.12659 4.75468 5.3774 4.64952 5.6396 4.64724C5.9018 4.64496 6.1544 4.74575 6.343 4.92791L7.05 5.63491C7.23216 5.82351 7.33295 6.07612 7.33067 6.33831C7.3284 6.60051 7.22323 6.85132 7.03782 7.03673C6.85241 7.22214 6.6016 7.32731 6.3394 7.32958C6.07721 7.33186 5.8246 7.23107 5.636 7.04891ZM11.383 21.9989C10.8954 21.999 10.4246 21.821 10.0591 21.4984C9.69356 21.1758 9.45846 20.7307 9.398 20.2469L9.018 17.2069C7.87033 16.5496 6.972 15.5315 6.4627 14.3109C5.9534 13.0903 5.86167 11.7356 6.20177 10.4575C6.54187 9.17942 7.29474 8.0495 8.34332 7.24345C9.39189 6.43741 10.6774 6.00041 12 6.00041C13.3226 6.00041 14.6081 6.43741 15.6567 7.24345C16.7053 8.0495 17.4581 9.17942 17.7982 10.4575C18.1383 11.7356 18.0466 13.0903 17.5373 14.3109C17.028 15.5315 16.1297 16.5496 14.982 17.2069L14.602 20.2469C14.5415 20.7307 14.3064 21.1758 13.9409 21.4984C13.5754 21.821 13.1046 21.999 12.617 21.9989L11.383 21.9989ZM20 12.9989C19.7348 12.9989 19.4804 12.8936 19.2929 12.706C19.1054 12.5185 19 12.2641 19 11.9989C19 11.7337 19.1054 11.4793 19.2929 11.2918C19.4804 11.1043 19.7348 10.9989 20 10.9989L21 10.9989C21.2652 10.9989 21.5196 11.1043 21.7071 11.2918C21.8946 11.4793 22 11.7337 22 11.9989C22 12.2641 21.8946 12.5185 21.7071 12.706C21.5196 12.8936 21.2652 12.9989 21 12.9989L20 12.9989ZM3 12.9989C2.73478 12.9989 2.48043 12.8936 2.29289 12.706C2.10536 12.5185 2 12.2641 2 11.9989C2 11.7337 2.10536 11.4793 2.29289 11.2918C2.48043 11.1043 2.73478 10.9989 3 10.9989L4 10.9989C4.26522 10.9989 4.51957 11.1043 4.70711 11.2918C4.89464 11.4793 5 11.7337 5 11.9989C5 12.2641 4.89464 12.5185 4.70711 12.706C4.51957 12.8936 4.26522 12.9989 4 12.9989L3 12.9989ZM4.929 19.0689C4.74153 18.8814 4.63621 18.6271 4.63621 18.3619C4.63621 18.0967 4.74153 17.8424 4.929 17.6549L5.636 16.9479C5.72825 16.8524 5.83859 16.7762 5.9606 16.7238C6.0826 16.6714 6.21382 16.6438 6.3466 16.6427C6.47938 16.6415 6.61106 16.6668 6.73395 16.7171C6.85685 16.7674 6.9685 16.8416 7.0624 16.9355C7.15629 17.0294 7.23054 17.1411 7.28082 17.264C7.3311 17.3869 7.35641 17.5185 7.35525 17.6513C7.3541 17.7841 7.32651 17.9153 7.2741 18.0373C7.22169 18.1593 7.14551 18.2697 7.05 18.3619L6.343 19.0689C6.15547 19.2564 5.90116 19.3617 5.636 19.3617C5.37084 19.3617 5.11653 19.2564 4.929 19.0689ZM17.657 19.0689L16.95 18.3619C16.7723 18.1725 16.6754 17.9213 16.6796 17.6616C16.6838 17.402 16.7889 17.1541 16.9726 16.9705C17.1563 16.7869 17.4042 16.682 17.6639 16.678C17.9236 16.674 18.1747 16.7711 18.364 16.9489L19.071 17.6559C19.2487 17.8454 19.3456 18.0965 19.3414 18.3562C19.3372 18.6159 19.2321 18.8637 19.0484 19.0473C18.8647 19.2309 18.6168 19.3358 18.3571 19.3398C18.0974 19.3439 17.8463 19.2467 17.657 19.0689ZM11.383 19.9989L12.617 19.9989L12.867 17.9989L11.133 17.9989L11.383 19.9989Z" fill="white"/>
</g>
<defs>
<clipPath id="clip0_0_124">
<rect width="24" height="24" fill="white"/>
</clipPath>
</defs>
</svg>
