<svg width="24" height="24" viewBox="0 0 24 24" fill="none" xmlns="http://www.w3.org/2000/svg">
<g clip-path="url(#clip0_0_292)">
<path fill-rule="evenodd" clip-rule="evenodd" d="M12 4.99902C11.7551 4.99899 11.5187 4.90907 11.3356 4.74631C11.1526 4.58355 11.0357 4.35927 11.007 4.11602L11 3.99902L11 2.99902C11.0003 2.74414 11.0979 2.49899 11.2728 2.31365C11.4478 2.12832 11.687 2.01679 11.9414 2.00185C12.1958 1.98691 12.4464 2.0697 12.6418 2.23329C12.8373 2.39688 12.9629 2.62893 12.993 2.88202L13 2.99902L13 3.99902C13 4.26424 12.8946 4.51859 12.7071 4.70613C12.5196 4.89367 12.2652 4.99902 12 4.99902ZM16.95 7.04902C16.7625 6.86149 16.6572 6.60719 16.6572 6.34202C16.6572 6.07686 16.7625 5.82255 16.95 5.63502L17.657 4.92802C17.7492 4.83251 17.8596 4.75633 17.9816 4.70392C18.1036 4.65151 18.2348 4.62393 18.3676 4.62277C18.5004 4.62162 18.6321 4.64692 18.755 4.6972C18.8779 4.74748 18.9895 4.82174 19.0834 4.91563C19.1773 5.00952 19.2515 5.12117 19.3018 5.24407C19.3521 5.36697 19.3774 5.49864 19.3763 5.63142C19.3751 5.7642 19.3475 5.89542 19.2951 6.01743C19.2427 6.13943 19.1665 6.24978 19.071 6.34202L18.364 7.04902C18.1765 7.23649 17.9222 7.34181 17.657 7.34181C17.3918 7.34181 17.1375 7.23649 16.95 7.04902ZM5.636 7.04902L4.929 6.34202C4.74684 6.15342 4.64605 5.90082 4.64833 5.63862C4.65061 5.37642 4.75578 5.12561 4.94118 4.9402C5.12659 4.7548 5.3774 4.64963 5.6396 4.64735C5.9018 4.64507 6.1544 4.74587 6.343 4.92802L7.05 5.63502C7.23216 5.82362 7.33295 6.07623 7.33067 6.33842C7.3284 6.60062 7.22323 6.85143 7.03782 7.03684C6.85241 7.22225 6.6016 7.32742 6.3394 7.3297C6.07721 7.33197 5.8246 7.23118 5.636 7.04902ZM11.383 21.999C10.8954 21.9991 10.4246 21.8211 10.0591 21.4985C9.69356 21.1759 9.45846 20.7308 9.398 20.247L9.018 17.207C7.87033 16.5497 6.972 15.5316 6.4627 14.311C5.9534 13.0904 5.86167 11.7357 6.20177 10.4576C6.54187 9.17953 7.29474 8.04961 8.34332 7.24356C9.39189 6.43752 10.6774 6.00052 12 6.00052C13.3226 6.00052 14.6081 6.43752 15.6567 7.24356C16.7053 8.04961 17.4581 9.17953 17.7982 10.4576C18.1383 11.7357 18.0466 13.0904 17.5373 14.311C17.028 15.5316 16.1297 16.5497 14.982 17.207L14.602 20.247C14.5415 20.7308 14.3064 21.1759 13.9409 21.4985C13.5754 21.8211 13.1046 21.9991 12.617 21.999L11.383 21.999ZM12 15.999C13.0609 15.999 14.0783 15.5776 14.8284 14.8275C15.5786 14.0773 16 13.0599 16 11.999C16 10.9382 15.5786 9.92074 14.8284 9.1706C14.0783 8.42045 13.0609 7.99902 12 7.99902C10.9391 7.99902 9.92172 8.42045 9.17157 9.1706C8.42143 9.92074 8 10.9382 8 11.999C8 13.0599 8.42143 14.0773 9.17157 14.8274C9.92172 15.5776 10.9391 15.999 12 15.999ZM20 12.999C19.7348 12.999 19.4804 12.8937 19.2929 12.7061C19.1054 12.5186 19 12.2642 19 11.999C19 11.7338 19.1054 11.4795 19.2929 11.2919C19.4804 11.1044 19.7348 10.999 20 10.999L21 10.999C21.2652 10.999 21.5196 11.1044 21.7071 11.2919C21.8946 11.4795 22 11.7338 22 11.999C22 12.2642 21.8946 12.5186 21.7071 12.7061C21.5196 12.8937 21.2652 12.999 21 12.999L20 12.999ZM3 12.999C2.73478 12.999 2.48043 12.8937 2.29289 12.7061C2.10536 12.5186 2 12.2642 2 11.999C2 11.7338 2.10536 11.4795 2.29289 11.2919C2.48043 11.1044 2.73478 10.999 3 10.999L4 10.999C4.26522 10.999 4.51957 11.1044 4.70711 11.2919C4.89464 11.4795 5 11.7338 5 11.999C5 12.2642 4.89464 12.5186 4.70711 12.7061C4.51957 12.8937 4.26522 12.999 4 12.999L3 12.999ZM4.929 19.069C4.74153 18.8815 4.63621 18.6272 4.63621 18.362C4.63621 18.0969 4.74153 17.8425 4.929 17.655L5.636 16.948C5.72825 16.8525 5.83859 16.7763 5.9606 16.7239C6.0826 16.6715 6.21382 16.6439 6.3466 16.6428C6.47938 16.6416 6.61106 16.6669 6.73395 16.7172C6.85685 16.7675 6.9685 16.8417 7.0624 16.9356C7.15629 17.0295 7.23054 17.1412 7.28082 17.2641C7.3311 17.387 7.35641 17.5186 7.35525 17.6514C7.3541 17.7842 7.32651 17.9154 7.2741 18.0374C7.22169 18.1594 7.14551 18.2698 7.05 18.362L6.343 19.069C6.15547 19.2565 5.90116 19.3618 5.636 19.3618C5.37084 19.3618 5.11653 19.2565 4.929 19.069ZM17.657 19.069L16.95 18.362C16.7723 18.1726 16.6754 17.9214 16.6796 17.6618C16.6838 17.4021 16.7889 17.1542 16.9726 16.9706C17.1563 16.787 17.4042 16.6821 17.6639 16.6781C17.9236 16.6741 18.1747 16.7712 18.364 16.949L19.071 17.656C19.2487 17.8455 19.3456 18.0966 19.3414 18.3563C19.3372 18.616 19.2321 18.8638 19.0484 19.0474C18.8647 19.231 18.6168 19.3359 18.3571 19.3399C18.0974 19.344 17.8463 19.2468 17.657 19.069ZM11.383 19.999L12.617 19.999L12.867 17.999L11.133 17.999L11.383 19.999Z" fill="white"/>
</g>
<defs>
<clipPath id="clip0_0_292">
<rect width="24" height="24" fill="white"/>
</clipPath>
</defs>
</svg>
