<svg width="16" height="16" viewBox="0 0 16 16" fill="none" xmlns="http://www.w3.org/2000/svg">
<g clip-path="url(#clip0_0_464)">
<path d="M8 1.33325C9.5913 1.33325 11.1174 1.96539 12.2426 3.09061C13.3679 4.21583 14 5.74195 14 7.33325C14 9.38259 12.8827 11.0599 11.7053 12.2633C11.117 12.8578 10.4752 13.397 9.788 13.8739L9.504 14.0673L9.37067 14.1559L9.11933 14.3159L8.89533 14.4526L8.618 14.6139C8.42967 14.7211 8.2167 14.7775 8 14.7775C7.7833 14.7775 7.57033 14.7211 7.382 14.6139L7.10467 14.4526L6.758 14.2393L6.63 14.1559L6.35667 13.9739C5.61532 13.4721 4.92471 12.8992 4.29467 12.2633C3.11733 11.0593 2 9.38259 2 7.33325C2 5.74195 2.63214 4.21583 3.75736 3.09061C4.88258 1.96539 6.4087 1.33325 8 1.33325ZM8 5.33325C7.73736 5.33325 7.47728 5.38498 7.23463 5.48549C6.99198 5.586 6.7715 5.73332 6.58579 5.91904C6.40007 6.10476 6.25275 6.32523 6.15224 6.56789C6.05173 6.81054 6 7.07061 6 7.33325C6 7.5959 6.05173 7.85597 6.15224 8.09862C6.25275 8.34127 6.40007 8.56175 6.58579 8.74747C6.7715 8.93318 6.99198 9.0805 7.23463 9.18101C7.47728 9.28152 7.73736 9.33325 8 9.33325C8.53043 9.33325 9.03914 9.12254 9.41421 8.74747C9.78929 8.37239 10 7.86369 10 7.33325C10 6.80282 9.78929 6.29411 9.41421 5.91904C9.03914 5.54397 8.53043 5.33325 8 5.33325Z" fill="#151918"/>
</g>
<defs>
<clipPath id="clip0_0_464">
<rect width="16" height="16" fill="white"/>
</clipPath>
</defs>
</svg>
