<svg width="16" height="16" viewBox="0 0 16 16" fill="none" xmlns="http://www.w3.org/2000/svg">
<g clip-path="url(#clip0_0_29)">
<path d="M3.33398 2.66659C3.33398 1.93021 3.93094 1.33325 4.66732 1.33325H11.334C12.0704 1.33325 12.6673 1.93021 12.6673 2.66659V3.33325C12.6673 4.29407 12.2613 5.32289 11.7335 6.21051C11.3429 6.86712 10.8606 7.48885 10.3564 7.99992C10.8606 8.51099 11.3429 9.13272 11.7335 9.78932C12.2613 10.677 12.6673 11.7058 12.6673 12.6666V13.3333C12.6673 14.0697 12.0704 14.6666 11.334 14.6666H4.66732C3.93094 14.6666 3.33398 14.0697 3.33398 13.3333V12.6666C3.33398 11.7058 3.74001 10.677 4.26788 9.78932C4.65835 9.13272 5.14072 8.51099 5.64489 7.99992C5.14072 7.48885 4.65835 6.86712 4.26788 6.21051C3.74001 5.32289 3.33398 4.29407 3.33398 3.33325V2.66659Z" fill="white"/>
</g>
<defs>
<clipPath id="clip0_0_29">
<rect width="16" height="16" fill="white"/>
</clipPath>
</defs>
</svg>
