<svg width="16" height="16" viewBox="0 0 16 16" fill="none" xmlns="http://www.w3.org/2000/svg">
<g clip-path="url(#clip0_0_273)">
<path d="M8.00065 1.33325C11.6827 1.33325 14.6673 4.31792 14.6673 7.99992C14.6673 11.6819 11.6827 14.6666 8.00065 14.6666C4.31865 14.6666 1.33398 11.6819 1.33398 7.99992C1.33398 4.31792 4.31865 1.33325 8.00065 1.33325ZM6.58665 5.64259C6.46696 5.52175 6.3056 5.45123 6.13562 5.44546C5.96563 5.4397 5.79987 5.49912 5.67226 5.61156C5.54466 5.72401 5.46485 5.88098 5.44918 6.05033C5.43351 6.21969 5.48317 6.38864 5.58798 6.52259L5.64398 6.58592L7.05732 7.99925L5.64398 9.41392C5.52315 9.53361 5.45263 9.69497 5.44686 9.86495C5.4411 10.0349 5.50052 10.2007 5.61296 10.3283C5.72541 10.4559 5.88237 10.5357 6.05173 10.5514C6.22109 10.5671 6.39004 10.5174 6.52398 10.4126L6.58665 10.3573L8.00065 8.94258L9.41465 10.3573C9.53435 10.4781 9.6957 10.5486 9.86568 10.5544C10.0357 10.5601 10.2014 10.5007 10.329 10.3883C10.4566 10.2758 10.5365 10.1189 10.5521 9.9495C10.5678 9.78014 10.5181 9.6112 10.4133 9.47725L10.358 9.41392L8.94332 7.99992L10.358 6.58592C10.4788 6.46622 10.5493 6.30487 10.5551 6.13489C10.5609 5.9649 10.5015 5.79914 10.389 5.67153C10.2766 5.54392 10.1196 5.46412 9.95024 5.44845C9.78088 5.43278 9.61193 5.48244 9.47798 5.58725L9.41465 5.64259L8.00065 7.05725L6.58665 5.64259Z" fill="white"/>
</g>
<defs>
<clipPath id="clip0_0_273">
<rect width="16" height="16" fill="white"/>
</clipPath>
</defs>
</svg>
