<svg width="24" height="24" viewBox="0 0 24 24" fill="none" xmlns="http://www.w3.org/2000/svg">
<g clip-path="url(#clip0_0_144)">
<path d="M9.00025 20C9.26547 20 9.51982 20.1054 9.70736 20.2929C9.8949 20.4804 10.0003 20.7348 10.0003 21C10.0003 21.2652 9.8949 21.5196 9.70736 21.7071C9.51982 21.8946 9.26547 22 9.00025 22C8.73504 22 8.48068 21.8946 8.29315 21.7071C8.10561 21.5196 8.00025 21.2652 8.00025 21C8.00025 20.7348 8.10561 20.4804 8.29315 20.2929C8.48068 20.1054 8.73504 20 9.00025 20ZM16.0003 20C16.2655 20 16.5198 20.1054 16.7074 20.2929C16.8949 20.4804 17.0003 20.7348 17.0003 21C17.0003 21.2652 16.8949 21.5196 16.7074 21.7071C16.5198 21.8946 16.2655 22 16.0003 22C15.735 22 15.4807 21.8946 15.2931 21.7071C15.1056 21.5196 15.0003 21.2652 15.0003 21C15.0003 20.7348 15.1056 20.4804 15.2931 20.2929C15.4807 20.1054 15.735 20 16.0003 20ZM3.49525 2.631L3.60025 2.701L5.30825 3.981C5.59892 4.19909 5.82467 4.49226 5.96125 4.829L6.02125 5H18.8673C19.1384 4.99993 19.4067 5.05498 19.6558 5.16181C19.905 5.26863 20.1298 5.425 20.3167 5.62141C20.5036 5.81782 20.6486 6.05018 20.7429 6.30436C20.8372 6.55854 20.8788 6.82923 20.8653 7.1L20.8523 7.248L20.3953 10.903C20.2581 12.0029 19.7593 13.0261 18.9774 13.8117C18.1954 14.5973 17.1745 15.1008 16.0753 15.243L15.8493 15.266L8.53625 15.876L8.79625 17H17.5003C17.7551 17.0003 18.0003 17.0979 18.1856 17.2728C18.371 17.4478 18.4825 17.687 18.4974 17.9414C18.5124 18.1958 18.4296 18.4464 18.266 18.6418C18.1024 18.8373 17.8703 18.9629 17.6173 18.993L17.5003 19H8.79625C8.37186 19.0001 7.95844 18.8651 7.6158 18.6147C7.27316 18.3643 7.01906 18.0114 6.89025 17.607L6.84725 17.45L4.10725 5.58L2.40025 4.3C2.20515 4.15377 2.07019 3.94129 2.02077 3.70253C1.97134 3.46378 2.01084 3.21518 2.13185 3.00351C2.25286 2.79184 2.44704 2.63167 2.67786 2.55312C2.90868 2.47458 3.16025 2.48307 3.38525 2.577L3.49525 2.631ZM18.8673 7H6.48725L8.08225 13.906L15.6823 13.273C16.3682 13.2159 17.0136 12.9247 17.5103 12.4482C18.007 11.9718 18.3248 11.339 18.4103 10.656L18.8673 7Z" fill="white"/>
</g>
<defs>
<clipPath id="clip0_0_144">
<rect width="24" height="24" fill="white"/>
</clipPath>
</defs>
</svg>
