<svg width="30" height="30" viewBox="0 0 30 30" fill="none" xmlns="http://www.w3.org/2000/svg">
<path d="M23.125 7.5C23.6995 7.5 24.2684 7.61316 24.7992 7.83303C25.33 8.05289 25.8123 8.37515 26.2186 8.78141C26.6248 9.18766 26.9471 9.66996 27.167 10.2008C27.3868 10.7316 27.5 11.3005 27.5 11.875C27.5 12.4495 27.3868 13.0184 27.167 13.5492C26.9471 14.08 26.6248 14.5623 26.2186 14.9686C25.8123 15.3748 25.33 15.6971 24.7992 15.917C24.2684 16.1368 23.6995 16.25 23.125 16.25H3.75C3.41848 16.25 3.10054 16.1183 2.86612 15.8839C2.6317 15.6495 2.5 15.3315 2.5 15C2.5 14.6685 2.6317 14.3505 2.86612 14.1161C3.10054 13.8817 3.41848 13.75 3.75 13.75H23.125C23.4723 13.7498 23.8127 13.6532 24.1083 13.4709C24.4039 13.2886 24.643 13.0278 24.7991 12.7175C24.9551 12.4073 25.022 12.0598 24.9921 11.7138C24.9622 11.3678 24.8369 11.0369 24.63 10.758C24.4231 10.4791 24.1428 10.2631 23.8204 10.1341C23.4979 10.0051 23.146 9.96824 22.8038 10.0275C22.4616 10.0869 22.1426 10.24 21.8824 10.47C21.6222 10.7 21.4309 10.9977 21.33 11.33L21.2875 11.4987C21.2548 11.6596 21.1908 11.8125 21.0991 11.9486C21.0073 12.0847 20.8897 12.2014 20.7528 12.2921C20.616 12.3828 20.4626 12.4456 20.3015 12.4769C20.1403 12.5083 19.9746 12.5077 19.8137 12.475C19.6529 12.4423 19.5 12.3783 19.3639 12.2866C19.2278 12.1948 19.1111 12.0772 19.0204 11.9403C18.9297 11.8035 18.8669 11.6501 18.8356 11.489C18.8042 11.3278 18.8048 11.1621 18.8375 11.0012C19.039 10.0128 19.5758 9.12438 20.3571 8.48634C21.1384 7.8483 22.1163 7.49985 23.125 7.5ZM13.75 3.75C14.7446 3.75 15.6984 4.14509 16.4017 4.84835C17.1049 5.55161 17.5 6.50544 17.5 7.5C17.5 8.49456 17.1049 9.44839 16.4017 10.1517C15.6984 10.8549 14.7446 11.25 13.75 11.25H6.25C5.91848 11.25 5.60054 11.1183 5.36612 10.8839C5.1317 10.6495 5 10.3315 5 10C5 9.66848 5.1317 9.35054 5.36612 9.11612C5.60054 8.8817 5.91848 8.75 6.25 8.75H13.75C13.9633 8.75 14.1731 8.69539 14.3594 8.59139C14.5456 8.48738 14.7022 8.33744 14.8141 8.15582C14.926 7.97421 14.9896 7.76697 14.9988 7.55384C15.008 7.3407 14.9625 7.12876 14.8666 6.93819C14.7707 6.74761 14.6277 6.58475 14.451 6.4651C14.2744 6.34545 14.0701 6.273 13.8576 6.25464C13.645 6.23628 13.4313 6.27262 13.2368 6.3602C13.0423 6.44778 12.8734 6.5837 12.7462 6.755L12.6663 6.87625C12.5002 7.16318 12.2269 7.37238 11.9066 7.45783C11.5862 7.54327 11.2451 7.49797 10.9581 7.33187C10.6712 7.16578 10.462 6.89251 10.3765 6.57218C10.2911 6.25184 10.3364 5.91068 10.5025 5.62375C10.8318 5.05392 11.3052 4.58079 11.8753 4.25189C12.4453 3.92298 13.0919 3.74989 13.75 3.75ZM6.25 3.75C6.58152 3.75 6.89946 3.8817 7.13388 4.11612C7.3683 4.35054 7.5 4.66848 7.5 5C7.5 5.33152 7.3683 5.64946 7.13388 5.88388C6.89946 6.1183 6.58152 6.25 6.25 6.25C5.91848 6.25 5.60054 6.1183 5.36612 5.88388C5.1317 5.64946 5 5.33152 5 5C5 4.66848 5.1317 4.35054 5.36612 4.11612C5.60054 3.8817 5.91848 3.75 6.25 3.75ZM21.25 3.75C21.5815 3.75 21.8995 3.8817 22.1339 4.11612C22.3683 4.35054 22.5 4.66848 22.5 5C22.5 5.33152 22.3683 5.64946 22.1339 5.88388C21.8995 6.1183 21.5815 6.25 21.25 6.25C20.9185 6.25 20.6005 6.1183 20.3661 5.88388C20.1317 5.64946 20 5.33152 20 5C20 4.66848 20.1317 4.35054 20.3661 4.11612C20.6005 3.8817 20.9185 3.75 21.25 3.75ZM11.25 23.75C11.5815 23.75 11.8995 23.8817 12.1339 24.1161C12.3683 24.3505 12.5 24.6685 12.5 25C12.5 25.3315 12.3683 25.6495 12.1339 25.8839C11.8995 26.1183 11.5815 26.25 11.25 26.25C10.9185 26.25 10.6005 26.1183 10.3661 25.8839C10.1317 25.6495 10 25.3315 10 25C10 24.6685 10.1317 24.3505 10.3661 24.1161C10.6005 23.8817 10.9185 23.75 11.25 23.75ZM18.125 18.75C18.6316 18.75 19.1306 18.8731 19.579 19.1088C20.0274 19.3445 20.4118 19.6857 20.6991 20.1029C20.9864 20.5202 21.1679 21.001 21.228 21.504C21.2882 22.007 21.2251 22.5171 21.0443 22.9903C20.8635 23.4636 20.5704 23.8857 20.1901 24.2205C19.8099 24.5553 19.354 24.7926 18.8617 24.912C18.3694 25.0314 17.8554 25.0293 17.3641 24.9059C16.8727 24.7825 16.4188 24.5416 16.0413 24.2037C15.8046 23.9917 15.6576 23.6974 15.6302 23.3808C15.6028 23.0642 15.6969 22.7491 15.8935 22.4995C16.0902 22.2498 16.3745 22.0844 16.6887 22.0369C17.0029 21.9894 17.3234 22.0634 17.585 22.2437L17.7087 22.3412C17.7843 22.4087 17.8751 22.4568 17.9734 22.4813C18.0716 22.5059 18.1744 22.5062 18.2728 22.4823C18.3712 22.4583 18.4623 22.4108 18.5383 22.3438C18.6143 22.2768 18.6728 22.1924 18.7089 22.0977C18.745 22.0031 18.7576 21.9011 18.7455 21.8006C18.7335 21.7 18.6971 21.6039 18.6397 21.5205C18.5822 21.4371 18.5054 21.3689 18.4157 21.3217C18.326 21.2746 18.2263 21.25 18.125 21.25H8.75C8.41848 21.25 8.10054 21.1183 7.86612 20.8839C7.6317 20.6495 7.5 20.3315 7.5 20C7.5 19.6685 7.6317 19.3505 7.86612 19.1161C8.10054 18.8817 8.41848 18.75 8.75 18.75H18.125ZM26.25 21.25C26.25 21.5815 26.1183 21.8995 25.8839 22.1339C25.6495 22.3683 25.3315 22.5 25 22.5C24.6685 22.5 24.3505 22.3683 24.1161 22.1339C23.8817 21.8995 23.75 21.5815 23.75 21.25C23.75 20.9185 23.8817 20.6005 24.1161 20.3661C24.3505 20.1317 24.6685 20 25 20C25.3315 20 25.6495 20.1317 25.8839 20.3661C26.1183 20.6005 26.25 20.9185 26.25 21.25Z" fill="#101010"/>
</svg>
