<svg width="20" height="20" viewBox="0 0 20 20" fill="none" xmlns="http://www.w3.org/2000/svg">
<path d="M10 0C15.523 0 20 4.477 20 10C20 15.523 15.523 20 10 20C4.477 20 0 15.523 0 10C0 4.477 4.477 0 10 0ZM10 2C7.87827 2 5.84344 2.84285 4.34315 4.34315C2.84285 5.84344 2 7.87827 2 10C2 12.1217 2.84285 14.1566 4.34315 15.6569C5.84344 17.1571 7.87827 18 10 18C12.1217 18 14.1566 17.1571 15.6569 15.6569C17.1571 14.1566 18 12.1217 18 10C18 7.87827 17.1571 5.84344 15.6569 4.34315C14.1566 2.84285 12.1217 2 10 2ZM10.005 5.758C10.1771 5.58568 10.4061 5.48206 10.6491 5.4666C10.8922 5.45113 11.1325 5.52488 11.325 5.674L11.419 5.758L14.954 9.293C15.1262 9.46519 15.2296 9.69429 15.2449 9.93732C15.2602 10.1803 15.1863 10.4206 15.037 10.613L14.954 10.707L11.419 14.243C11.2395 14.4243 10.9974 14.53 10.7425 14.5387C10.4875 14.5473 10.2388 14.4582 10.0474 14.2895C9.85601 14.1209 9.7363 13.8854 9.7128 13.6314C9.68929 13.3773 9.76378 13.1239 9.921 12.923L10.005 12.829L11.833 10.999H5.757C5.50356 10.9965 5.26053 10.8979 5.07703 10.723C4.89354 10.5482 4.78328 10.3102 4.76855 10.0572C4.75381 9.80416 4.8357 9.55498 4.99766 9.36003C5.15962 9.16508 5.38956 9.0389 5.641 9.007L5.757 9H11.833L10.005 7.172C9.81753 6.98447 9.71221 6.73016 9.71221 6.465C9.71221 6.19984 9.81753 5.94553 10.005 5.758Z" fill="#151918"/>
</svg>
