<svg width="20" height="20" viewBox="0 0 20 20" fill="none" xmlns="http://www.w3.org/2000/svg">
<path fill-rule="evenodd" clip-rule="evenodd" d="M17.0709 2.92898C13.1656 -0.976326 6.83428 -0.976326 2.92898 2.92898C-0.976326 6.83428 -0.976326 13.1656 2.92898 17.0709C6.83428 20.9762 13.1656 20.9762 17.0709 17.0709C20.9762 13.1656 20.9762 6.83428 17.0709 2.92898ZM7.00328 6.99762C7.00332 7.26278 7.10867 7.51707 7.29617 7.70457C7.48366 7.89206 7.73795 7.99742 8.00311 7.99746L10.589 7.99675L6.29264 12.2931C6.10511 12.4806 5.99975 12.735 5.99975 13.0002C5.99975 13.2654 6.10511 13.5197 6.29264 13.7073C6.48018 13.8948 6.73453 14.0002 6.99974 14.0002C7.26495 14.0002 7.51931 13.8948 7.70684 13.7073L12.0032 9.41095V11.9975C12.0033 12.2628 12.1087 12.5171 12.2964 12.7046C12.484 12.8922 12.7384 12.9974 13.0037 12.9973C13.269 12.9973 13.5233 12.8918 13.7109 12.7041C13.8984 12.5165 14.0036 12.2621 14.0035 11.9968L14.0028 6.99691C14.0028 6.73175 13.8974 6.47746 13.71 6.28997C13.5225 6.10247 13.2682 5.99712 13.003 5.99708L8.00453 5.99637C7.87311 5.9963 7.74297 6.02213 7.62155 6.07238C7.50012 6.12264 7.3898 6.19634 7.29687 6.28926C7.20395 6.38218 7.13025 6.49251 7.08 6.61393C7.02974 6.73536 7.00391 6.8655 7.00398 6.99691L7.00328 6.99762Z" fill="#101010"/>
</svg>
