<svg width="172" height="27" viewBox="0 0 172 27" fill="none" xmlns="http://www.w3.org/2000/svg">
<g clip-path="url(#clip0_0_358)">
<mask id="mask0_0_358" style="mask-type:luminance" maskUnits="userSpaceOnUse" x="0" y="0" width="27" height="27">
<path d="M0 9.85004C0 6.43398 0 4.72584 0.664912 3.42094C1.2497 2.27314 2.18281 1.34004 3.33061 0.755246C4.6355 0.0903343 6.34341 0.0903341 9.7597 0.0903341H16.3822C19.7982 0.0903341 21.5064 0.0903343 22.8113 0.755246C23.9591 1.34004 24.8922 2.27314 25.477 3.42094C26.1419 4.72584 26.1419 6.43374 26.1419 9.85004V16.4725C26.1419 19.8886 26.1419 21.5967 25.477 22.9016C24.8922 24.0494 23.9591 24.9825 22.8113 25.5673C21.5064 26.2322 19.7985 26.2322 16.3822 26.2322H9.7597C6.34365 26.2322 4.6355 26.2322 3.33061 25.5673C2.18281 24.9825 1.2497 24.0494 0.664912 22.9016C0 21.5967 0 19.8886 0 16.4725V9.85004Z" fill="white"/>
</mask>
<g mask="url(#mask0_0_358)">
<path d="M0 9.85004C0 6.43398 0 4.72584 0.664912 3.42094C1.2497 2.27314 2.18281 1.34004 3.33061 0.755246C4.6355 0.0903343 6.34341 0.0903341 9.7597 0.0903341H16.3822C19.7982 0.0903341 21.5064 0.0903343 22.8113 0.755246C23.9591 1.34004 24.8922 2.27314 25.477 3.42094C26.1419 4.72584 26.1419 6.43374 26.1419 9.85004V16.4725C26.1419 19.8886 26.1419 21.5967 25.477 22.9016C24.8922 24.0494 23.9591 24.9825 22.8113 25.5673C21.5064 26.2322 19.7985 26.2322 16.3822 26.2322H9.7597C6.34365 26.2322 4.6355 26.2322 3.33061 25.5673C2.18281 24.9825 1.2497 24.0494 0.664912 22.9016C0 21.5967 0 19.8886 0 16.4725V9.85004Z" fill="#151918"/>
<path d="M11.545 9.23997C13.3498 9.23997 14.8127 7.77702 14.8127 5.9723C14.8127 4.16757 13.3498 2.70462 11.545 2.70462C9.7403 2.70462 8.27735 4.16757 8.27735 5.9723C8.27735 7.77702 9.7403 9.23997 11.545 9.23997Z" fill="white"/>
<path d="M23.9573 -1.76125C23.7719 -1.68137 23.587 -1.59593 23.4013 -1.5025C23.2164 -1.41173 23.0315 -1.31007 22.8485 -1.20332C22.6648 -1.09585 22.4837 -0.981849 22.3065 -0.857193C22.1294 -0.733748 21.9546 -0.603767 21.7871 -0.462167C21.4499 -0.184294 21.1396 0.130371 20.8678 0.462464C20.7308 0.62851 20.6069 0.800366 20.4916 0.974158C20.3745 1.14722 20.2709 1.32295 20.1763 1.49916C19.9882 1.85232 19.8359 2.20305 19.72 2.54748C19.599 2.88926 19.5128 3.2245 19.4411 3.54739C19.2991 4.19415 19.2306 4.79903 19.1768 5.37487C19.15 5.66315 19.132 5.94369 19.1103 6.21914C19.0899 6.49387 19.0744 6.76472 19.0527 7.02856C19.0142 7.55816 18.9662 8.06647 18.8965 8.55565C18.8249 9.04338 18.7271 9.50933 18.585 9.93727C18.4429 10.3652 18.2575 10.7544 18.0162 11.0839C17.7751 11.4133 17.4781 11.6849 17.1242 11.8967C16.7704 12.1077 16.3603 12.2571 15.9203 12.351C15.4788 12.443 15.0092 12.4836 14.5307 12.4798L14.1308 12.4732C14.056 12.4706 13.9805 12.4732 13.905 12.4744C13.8295 12.4752 13.7535 12.4776 13.6772 12.4822C13.3734 12.497 13.0643 12.5304 12.7528 12.5884C12.1322 12.7056 11.4925 12.9186 10.9045 13.2788C10.3166 13.6353 9.79521 14.1366 9.40623 14.7086C9.01338 15.2813 8.75439 15.9132 8.57963 16.5392C8.40632 17.1678 8.3262 17.7979 8.29183 18.4156C8.25843 19.0345 8.28602 19.6428 8.3417 20.2404C8.45885 21.4366 8.71663 22.5912 9.05502 23.7153C9.22324 24.2783 9.41979 24.8304 9.6294 25.3781C9.73494 25.6516 9.84555 25.9232 9.96271 26.1921C9.98497 26.2437 10.0072 26.295 10.0298 26.3466H15.3682C14.1814 25.2026 13.1449 23.8489 12.3585 22.3743C11.9088 21.5274 11.5416 20.6376 11.3061 19.7367C11.2753 19.6241 11.2485 19.5113 11.2223 19.3988C11.1981 19.2862 11.1751 19.1734 11.155 19.0609C11.1146 18.8362 11.0834 18.6116 11.0623 18.3897C11.0183 17.9457 11.0258 17.5093 11.0815 17.1C11.1364 16.6907 11.2497 16.3105 11.423 15.9837C11.5094 15.8196 11.6091 15.6671 11.7243 15.5269C11.8427 15.3892 11.9758 15.2643 12.1242 15.1525C12.4205 14.9286 12.7845 14.7541 13.1958 14.6485C13.4013 14.5946 13.6167 14.5546 13.8387 14.5275C13.8936 14.5198 13.9493 14.514 14.0062 14.5094C14.0625 14.5048 14.1187 14.4977 14.1763 14.4958L14.353 14.4861L14.5692 14.4791C15.1462 14.4534 15.7337 14.3941 16.3267 14.2649C16.9178 14.1349 17.5198 13.9367 18.0881 13.6251C18.6569 13.3182 19.1846 12.8968 19.6128 12.4033C20.0439 11.911 20.3779 11.3615 20.6453 10.8106C20.9135 10.2585 21.1215 9.70321 21.3057 9.16005C21.4911 8.61762 21.6499 8.08293 21.8137 7.5693C21.8924 7.31127 21.9776 7.06027 22.0606 6.81386C22.1432 6.56794 22.232 6.32879 22.3235 6.09909C22.5057 5.63967 22.7112 5.21488 22.9402 4.86608C23.054 4.6918 23.1769 4.53738 23.2992 4.40788C23.3619 4.34422 23.4246 4.28565 23.4873 4.23481C23.5499 4.18326 23.6122 4.13775 23.6753 4.10169C23.7995 4.02568 23.9217 3.97824 24.0406 3.95307C24.0987 3.93879 24.1577 3.93128 24.2166 3.92862C24.2754 3.92475 24.3318 3.92354 24.3918 3.92862C24.6246 3.94266 24.8786 4.00511 25.1736 4.1075C25.466 4.21109 25.7974 4.35923 26.1404 4.57078V-2.52371C25.4278 -2.30998 24.699 -2.08293 23.9568 -1.76125H23.9573Z" fill="white"/>
<path d="M9.75973 0.526294H16.3822C18.0974 0.526294 19.3577 0.526536 20.3531 0.607865C21.3433 0.68871 22.0329 0.847737 22.6136 1.14352C23.6793 1.68668 24.5458 2.55298 25.0888 3.61873C25.3845 4.1994 25.5436 4.88901 25.6244 5.87923C25.7057 6.87454 25.706 8.13466 25.706 9.85006V16.4726C25.706 18.1877 25.7057 19.4481 25.6244 20.4434C25.5436 21.4336 25.3845 22.1232 25.0888 22.7039C24.5456 23.7696 23.6793 24.6362 22.6136 25.1791C22.0329 25.4749 21.3433 25.6339 20.3531 25.7148C19.3577 25.7961 18.0976 25.7963 16.3822 25.7963H9.75973C8.04456 25.7963 6.78421 25.7961 5.7889 25.7148C4.79867 25.6339 4.10931 25.4749 3.52839 25.1791C2.46265 24.6359 1.59611 23.7696 1.05319 22.7039C0.757403 22.1232 0.598376 21.4336 0.517531 20.4434C0.436202 19.4481 0.43596 18.188 0.43596 16.4726V9.85006C0.43596 8.1349 0.436202 6.87454 0.517531 5.87923C0.598376 4.88901 0.757403 4.1994 1.05319 3.61873C1.59611 2.55298 2.46265 1.68644 3.52839 1.14352C4.10907 0.847737 4.79867 0.68871 5.7889 0.607865C6.78421 0.526536 8.04432 0.526294 9.75973 0.526294Z" stroke="white" stroke-width="3" stroke-linejoin="bevel"/>
</g>
</g>
<path d="M37.2645 3.01813H29.117V0.00122737H49.6135L48.8256 3.01813H40.6154V26.0744H37.2659V3.01813H37.2645Z" fill="white"/>
<path d="M59.3618 18.8847H51.4711L49.722 26.0734H46.1862L52.9975 0.000245473H57.8735L64.6847 26.0734H61.149L59.3625 18.8847H59.3618ZM58.6546 16.0167L55.3791 2.94303L52.1783 16.0167H58.6546Z" fill="white"/>
<path d="M67.7551 0.000245473H71.1047V12.1426C76.9854 11.4723 79.8146 8.00813 79.8513 0.000245473H83.2009C83.2009 6.33245 81.377 10.5784 77.6178 12.8509L83.2009 26.0734H79.5531L74.5657 14.1541C73.5237 14.4518 72.3696 14.6755 71.1041 14.7502V26.0734H67.7545V0.000245473H67.7551Z" fill="white"/>
<path d="M86.8425 0.000245473H98.9019V3.01714H90.1921V11.3234H97.9339V14.2662H90.1921V23.0566H98.9019V26.0734H86.8425V0.000245473Z" fill="white"/>
<path d="M103.17 9.8126C105.17 2.1759 111.279 -1.41847 118.669 0.516242C119.827 0.819333 121.06 1.25327 122.306 1.91353L121.506 4.96848C120.337 4.29153 119.225 3.81486 117.93 3.47639C112.243 1.98763 107.856 4.84564 106.337 10.6424C104.81 16.4739 107.311 21.0977 113.066 22.6045C114.225 22.9076 115.427 23.0371 116.779 23.0198L115.979 26.0747C114.535 26.0307 113.214 25.7957 112.124 25.5106C104.767 23.5852 101.17 17.4506 103.17 9.81394V9.8126Z" fill="white"/>
<path d="M132.462 18.9534H124.571L122.822 26.1422H119.286L126.097 0.0689779H130.973L137.785 26.1422H134.249L132.462 18.9534H132.462ZM131.755 16.0854L128.479 3.01177L125.278 16.0854H131.755Z" fill="white"/>
<path d="M159.94 0.0689779H172V3.08588H163.29V11.3922H171.032V14.335H163.29V23.1253H172V26.1422H159.94V0.0689779Z" fill="white"/>
<path d="M156.301 0.0689779H140.854V26.1422H144.204V14.819C145.469 14.7442 146.624 14.5212 147.666 14.2228L152.653 26.1422H156.301L150.718 12.9196C154.477 10.6478 156.301 6.40118 156.301 0.0689779ZM144.204 12.2113V3.42101H152.738C151.979 9.06759 149.188 11.6432 144.204 12.2113Z" fill="white"/>
<defs>
<clipPath id="clip0_0_358">
<rect width="26" height="26" fill="white" transform="translate(0 0.0903341) scale(1.00546)"/>
</clipPath>
</defs>
</svg>
