<svg width="24" height="24" viewBox="0 0 24 24" fill="none" xmlns="http://www.w3.org/2000/svg">
<g clip-path="url(#clip0_0_313)">
<path d="M9.00025 19.9999C9.26547 19.9999 9.51982 20.1053 9.70736 20.2928C9.8949 20.4804 10.0003 20.7347 10.0003 20.9999C10.0003 21.2652 9.8949 21.5195 9.70736 21.7071C9.51982 21.8946 9.26547 21.9999 9.00025 21.9999C8.73504 21.9999 8.48068 21.8946 8.29315 21.7071C8.10561 21.5195 8.00025 21.2652 8.00025 20.9999C8.00025 20.7347 8.10561 20.4804 8.29315 20.2928C8.48068 20.1053 8.73504 19.9999 9.00025 19.9999ZM16.0003 19.9999C16.2655 19.9999 16.5198 20.1053 16.7074 20.2928C16.8949 20.4804 17.0003 20.7347 17.0003 20.9999C17.0003 21.2652 16.8949 21.5195 16.7074 21.7071C16.5198 21.8946 16.2655 21.9999 16.0003 21.9999C15.735 21.9999 15.4807 21.8946 15.2931 21.7071C15.1056 21.5195 15.0003 21.2652 15.0003 20.9999C15.0003 20.7347 15.1056 20.4804 15.2931 20.2928C15.4807 20.1053 15.735 19.9999 16.0003 19.9999ZM3.49525 2.63094L3.60025 2.70094L5.30825 3.98094C5.59892 4.19904 5.82467 4.4922 5.96125 4.82894L6.02125 4.99994H18.8673C19.1384 4.99988 19.4067 5.05493 19.6558 5.16175C19.905 5.26858 20.1298 5.42495 20.3167 5.62136C20.5036 5.81777 20.6486 6.05012 20.7429 6.3043C20.8372 6.55848 20.8788 6.82918 20.8653 7.09994L20.8523 7.24794L20.3953 10.9029C20.2581 12.0029 19.7593 13.026 18.9774 13.8116C18.1954 14.5972 17.1745 15.1007 16.0753 15.2429L15.8493 15.2659L8.53625 15.8759L8.79625 16.9999H17.5003C17.7551 17.0002 18.0003 17.0978 18.1856 17.2728C18.371 17.4478 18.4825 17.6869 18.4974 17.9413C18.5124 18.1958 18.4296 18.4463 18.266 18.6418C18.1024 18.8372 17.8703 18.9628 17.6173 18.9929L17.5003 18.9999H8.79625C8.37186 19 7.95844 18.8651 7.6158 18.6147C7.27316 18.3642 7.01906 18.0113 6.89025 17.6069L6.84725 17.4499L4.10725 5.57994L2.40025 4.29994C2.20515 4.15371 2.07019 3.94124 2.02077 3.70248C1.97134 3.46372 2.01084 3.21513 2.13185 3.00345C2.25286 2.79178 2.44704 2.63161 2.67786 2.55306C2.90868 2.47452 3.16025 2.48301 3.38525 2.57694L3.49525 2.63094ZM18.8673 6.99994H6.48725L8.08225 13.9059L15.6823 13.2729C16.3682 13.2159 17.0136 12.9247 17.5103 12.4482C18.007 11.9717 18.3248 11.3389 18.4103 10.6559L18.8673 6.99994Z" fill="white"/>
</g>
<defs>
<clipPath id="clip0_0_313">
<rect width="24" height="24" fill="white"/>
</clipPath>
</defs>
</svg>
