<svg width="15" height="15" viewBox="0 0 15 15" fill="none" xmlns="http://www.w3.org/2000/svg">
<path d="M7.5 0C11.6423 0 15 3.35775 15 7.5C15 11.6423 11.6423 15 7.5 15C3.35775 15 0 11.6423 0 7.5C0 3.35775 3.35775 0 7.5 0ZM7.5 1.5C5.9087 1.5 4.38258 2.13214 3.25736 3.25736C2.13214 4.38258 1.5 5.9087 1.5 7.5C1.5 9.0913 2.13214 10.6174 3.25736 11.7426C4.38258 12.8679 5.9087 13.5 7.5 13.5C9.0913 13.5 10.6174 12.8679 11.7426 11.7426C12.8679 10.6174 13.5 9.0913 13.5 7.5C13.5 5.9087 12.8679 4.38258 11.7426 3.25736C10.6174 2.13214 9.0913 1.5 7.5 1.5ZM7.50375 4.3185C7.6328 4.18926 7.80457 4.11155 7.98685 4.09995C8.16912 4.08835 8.34936 4.14366 8.49375 4.2555L8.56425 4.3185L11.2155 6.96975C11.3446 7.09889 11.4222 7.27072 11.4337 7.45299C11.4451 7.63526 11.3897 7.81545 11.2778 7.95975L11.2155 8.03025L8.56425 10.6823C8.42959 10.8182 8.24807 10.8975 8.05684 10.904C7.86561 10.9105 7.67912 10.8437 7.53556 10.7171C7.392 10.5906 7.30222 10.4141 7.2846 10.2235C7.26697 10.033 7.32283 9.84294 7.44075 9.69225L7.50375 9.62175L8.87475 8.24925H4.31775C4.12767 8.24738 3.9454 8.1734 3.80778 8.04227C3.67016 7.91114 3.58746 7.73265 3.57641 7.54289C3.56536 7.35312 3.62678 7.16624 3.74825 7.02002C3.86972 6.87381 4.04217 6.77917 4.23075 6.75525L4.31775 6.75H8.87475L7.50375 5.379C7.36315 5.23835 7.28416 5.04762 7.28416 4.84875C7.28416 4.64988 7.36315 4.45915 7.50375 4.3185Z" fill="#151918"/>
</svg>
