<svg width="16" height="16" viewBox="0 0 16 16" fill="none" xmlns="http://www.w3.org/2000/svg">
<g clip-path="url(#clip0_0_38)">
<path d="M8.00065 1.33337C11.6827 1.33337 14.6673 4.31804 14.6673 8.00004C14.6673 11.682 11.6827 14.6667 8.00065 14.6667C4.31865 14.6667 1.33398 11.682 1.33398 8.00004C1.33398 4.31804 4.31865 1.33337 8.00065 1.33337ZM8.00065 2.66671C6.58616 2.66671 5.22961 3.22861 4.22941 4.2288C3.22922 5.229 2.66732 6.58555 2.66732 8.00004C2.66732 9.41453 3.22922 10.7711 4.22941 11.7713C5.22961 12.7715 6.58616 13.3334 8.00065 13.3334C9.41514 13.3334 10.7717 12.7715 11.7719 11.7713C12.7721 10.7711 13.334 9.41453 13.334 8.00004C13.334 6.58555 12.7721 5.229 11.7719 4.2288C10.7717 3.22861 9.41514 2.66671 8.00065 2.66671ZM8.00398 5.17204C8.1187 5.05716 8.27138 4.98808 8.4334 4.97777C8.59542 4.96746 8.75564 5.01663 8.88398 5.11604L8.94665 5.17204L11.3033 7.52871C11.4181 7.6435 11.4871 7.79624 11.4972 7.95825C11.5074 8.12027 11.4582 8.28044 11.3587 8.40871L11.3033 8.47137L8.94665 10.8287C8.82696 10.9495 8.6656 11.0201 8.49562 11.0258C8.32563 11.0316 8.15987 10.9722 8.03226 10.8597C7.90466 10.7473 7.82485 10.5903 7.80918 10.421C7.79351 10.2516 7.84317 10.0827 7.94798 9.94871L8.00398 9.88604L9.22265 8.66604H5.17198C5.00303 8.66438 4.841 8.59862 4.71867 8.48206C4.59635 8.3655 4.52284 8.20684 4.51302 8.03816C4.50319 7.86948 4.55779 7.70336 4.66576 7.5734C4.77373 7.44343 4.92703 7.35931 5.09465 7.33804L5.17198 7.33337H9.22265L8.00398 6.11471C7.879 5.98969 7.80879 5.82015 7.80879 5.64337C7.80879 5.4666 7.879 5.29706 8.00398 5.17204Z" fill="white"/>
</g>
<defs>
<clipPath id="clip0_0_38">
<rect width="16" height="16" fill="white"/>
</clipPath>
</defs>
</svg>
