<svg width="24" height="24" viewBox="0 0 24 24" fill="none" xmlns="http://www.w3.org/2000/svg">
<g clip-path="url(#clip0_0_41)">
<path d="M12.3125 13.3245C14.7085 13.3245 16.8875 14.0185 18.4905 14.9965C19.2905 15.4845 19.9745 16.0605 20.4685 16.6865C20.9545 17.3015 21.3125 18.0375 21.3125 18.8245C21.3125 19.6695 20.9015 20.3355 20.3095 20.8105C19.7495 21.2605 19.0105 21.5585 18.2255 21.7665C16.6475 22.1835 14.5415 22.3245 12.3125 22.3245C10.0835 22.3245 7.9775 22.1845 6.3995 21.7665C5.6145 21.5585 4.8755 21.2605 4.3155 20.8105C3.7225 20.3345 3.3125 19.6695 3.3125 18.8245C3.3125 18.0375 3.6705 17.3015 4.1565 16.6855C4.6505 16.0605 5.3335 15.4855 6.1345 14.9955C7.7375 14.0195 9.9175 13.3245 12.3125 13.3245ZM12.3125 2.32446C13.6386 2.32446 14.9104 2.85125 15.848 3.78893C16.7857 4.72661 17.3125 5.99838 17.3125 7.32446C17.3125 8.65055 16.7857 9.92231 15.848 10.86C14.9104 11.7977 13.6386 12.3245 12.3125 12.3245C10.9864 12.3245 9.71465 11.7977 8.77697 10.86C7.83928 9.92231 7.3125 8.65055 7.3125 7.32446C7.3125 5.99838 7.83928 4.72661 8.77697 3.78893C9.71465 2.85125 10.9864 2.32446 12.3125 2.32446Z" fill="#151918"/>
</g>
<defs>
<clipPath id="clip0_0_41">
<rect width="24" height="24" fill="white"/>
</clipPath>
</defs>
</svg>
