<svg width="172" height="27" viewBox="0 0 172 27" fill="none" xmlns="http://www.w3.org/2000/svg">
<g clip-path="url(#clip0_0_52)">
<mask id="mask0_0_52" style="mask-type:luminance" maskUnits="userSpaceOnUse" x="0" y="0" width="27" height="27">
<path d="M0 9.8501C0 6.43404 0 4.7259 0.664912 3.42101C1.2497 2.2732 2.18281 1.3401 3.33061 0.755307C4.6355 0.0903957 6.34341 0.0903954 9.7597 0.0903954H16.3822C19.7982 0.0903954 21.5064 0.0903957 22.8113 0.755307C23.9591 1.3401 24.8922 2.2732 25.477 3.42101C26.1419 4.7259 26.1419 6.4338 26.1419 9.8501V16.4726C26.1419 19.8886 26.1419 21.5968 25.477 22.9017C24.8922 24.0495 23.9591 24.9826 22.8113 25.5674C21.5064 26.2323 19.7985 26.2323 16.3822 26.2323H9.7597C6.34365 26.2323 4.6355 26.2323 3.33061 25.5674C2.18281 24.9826 1.2497 24.0495 0.664912 22.9017C0 21.5968 0 19.8886 0 16.4726V9.8501Z" fill="white"/>
</mask>
<g mask="url(#mask0_0_52)">
<path d="M0 9.84998C0 6.43392 0 4.72577 0.664912 3.42088C1.2497 2.27308 2.18281 1.33998 3.33061 0.755185C4.6355 0.0902729 6.34341 0.0902727 9.7597 0.0902727H16.3822C19.7982 0.0902727 21.5064 0.0902729 22.8113 0.755185C23.9591 1.33998 24.8922 2.27308 25.477 3.42088C26.1419 4.72577 26.1419 6.43368 26.1419 9.84998V16.4725C26.1419 19.8885 26.1419 21.5967 25.477 22.9016C24.8922 24.0494 23.9591 24.9825 22.8113 25.5673C21.5064 26.2322 19.7985 26.2322 16.3822 26.2322H9.7597C6.34365 26.2322 4.6355 26.2322 3.33061 25.5673C2.18281 24.9825 1.2497 24.0494 0.664912 22.9016C0 21.5967 0 19.8885 0 16.4725V9.84998Z" fill="white"/>
<path d="M11.545 9.23997C13.3498 9.23997 14.8127 7.77702 14.8127 5.9723C14.8127 4.16757 13.3498 2.70462 11.545 2.70462C9.7403 2.70462 8.27735 4.16757 8.27735 5.9723C8.27735 7.77702 9.7403 9.23997 11.545 9.23997Z" fill="#151918"/>
<path d="M23.9573 -1.76119C23.7719 -1.68131 23.587 -1.59587 23.4013 -1.50244C23.2164 -1.41167 23.0315 -1.31001 22.8485 -1.20326C22.6648 -1.09579 22.4837 -0.981788 22.3065 -0.857132C22.1294 -0.733686 21.9546 -0.603705 21.7871 -0.462106C21.4499 -0.184233 21.1396 0.130433 20.8678 0.462525C20.7308 0.628572 20.6069 0.800427 20.4916 0.974219C20.3745 1.14729 20.2709 1.32301 20.1763 1.49923C19.9882 1.85238 19.8359 2.20311 19.72 2.54754C19.599 2.88932 19.5128 3.22456 19.4411 3.54745C19.2991 4.19421 19.2306 4.7991 19.1768 5.37493C19.15 5.66321 19.132 5.94375 19.1103 6.2192C19.0899 6.49393 19.0744 6.76478 19.0527 7.02862C19.0142 7.55822 18.9662 8.06653 18.8965 8.55571C18.8249 9.04344 18.7271 9.50939 18.585 9.93733C18.4429 10.3653 18.2575 10.7545 18.0162 11.0839C17.7751 11.4134 17.4781 11.6849 17.1242 11.8967C16.7704 12.1078 16.3603 12.2571 15.9203 12.3511C15.4788 12.443 15.0092 12.4837 14.5307 12.4798L14.1308 12.4733C14.056 12.4706 13.9805 12.4733 13.905 12.4745C13.8295 12.4752 13.7535 12.4777 13.6772 12.4822C13.3734 12.497 13.0643 12.5304 12.7528 12.5885C12.1322 12.7057 11.4925 12.9187 10.9045 13.2788C10.3166 13.6354 9.79521 14.1367 9.40623 14.7086C9.01338 15.2813 8.75439 15.9133 8.57963 16.5393C8.40632 17.1679 8.3262 17.7979 8.29183 18.4156C8.25843 19.0345 8.28602 19.6428 8.3417 20.2404C8.45885 21.4367 8.71663 22.5912 9.05502 23.7153C9.22324 24.2783 9.41979 24.8304 9.6294 25.3782C9.73494 25.6517 9.84555 25.9233 9.96271 26.1922C9.98497 26.2438 10.0072 26.2951 10.0298 26.3466H15.3682C14.1814 25.2027 13.1449 23.8489 12.3585 22.3744C11.9088 21.5274 11.5416 20.6376 11.3061 19.7367C11.2753 19.6242 11.2485 19.5114 11.2223 19.3988C11.1981 19.2863 11.1751 19.1735 11.155 19.0609C11.1146 18.8363 11.0834 18.6117 11.0623 18.3897C11.0183 17.9458 11.0258 17.5094 11.0815 17.1001C11.1364 16.6908 11.2497 16.3105 11.423 15.9837C11.5094 15.8196 11.6091 15.6671 11.7243 15.527C11.8427 15.3893 11.9758 15.2644 12.1242 15.1525C12.4205 14.9287 12.7845 14.7541 13.1958 14.6486C13.4013 14.5946 13.6167 14.5547 13.8387 14.5276C13.8936 14.5198 13.9493 14.514 14.0062 14.5094C14.0625 14.5048 14.1187 14.4978 14.1763 14.4959L14.353 14.4862L14.5692 14.4792C15.1462 14.4535 15.7337 14.3942 16.3267 14.2649C16.9178 14.135 17.5198 13.9367 18.0881 13.6252C18.6569 13.3183 19.1846 12.8969 19.6128 12.4033C20.0439 11.911 20.3779 11.3616 20.6453 10.8107C20.9135 10.2585 21.1215 9.70327 21.3057 9.16011C21.4911 8.61768 21.6499 8.08299 21.8137 7.56936C21.8924 7.31133 21.9776 7.06033 22.0606 6.81392C22.1432 6.568 22.232 6.32885 22.3235 6.09915C22.5057 5.63973 22.7112 5.21494 22.9402 4.86614C23.054 4.69187 23.1769 4.53744 23.2992 4.40794C23.3619 4.34428 23.4246 4.28571 23.4873 4.23488C23.5499 4.18332 23.6122 4.13781 23.6753 4.10175C23.7995 4.02575 23.9217 3.9783 24.0406 3.95313C24.0987 3.93885 24.1577 3.93135 24.2166 3.92868C24.2754 3.92481 24.3318 3.9236 24.3918 3.92868C24.6246 3.94272 24.8786 4.00517 25.1736 4.10756C25.466 4.21116 25.7974 4.35929 26.1404 4.57084V-2.52365C25.4278 -2.30992 24.699 -2.08287 23.9568 -1.76119H23.9573Z" fill="#151918"/>
<path d="M9.75973 0.526233H16.3822C18.0974 0.526233 19.3577 0.526475 20.3531 0.607804C21.3433 0.688648 22.0329 0.847675 22.6136 1.14346C23.6793 1.68662 24.5458 2.55292 25.0888 3.61866C25.3845 4.19934 25.5436 4.88894 25.6244 5.87917C25.7057 6.87448 25.706 8.13459 25.706 9.85V16.4725C25.706 18.1877 25.7057 19.448 25.6244 20.4433C25.5436 21.4336 25.3845 22.1232 25.0888 22.7038C24.5456 23.7696 23.6793 24.6361 22.6136 25.179C22.0329 25.4748 21.3433 25.6338 20.3531 25.7147C19.3577 25.796 18.0976 25.7963 16.3822 25.7963H9.75973C8.04456 25.7963 6.78421 25.796 5.7889 25.7147C4.79867 25.6338 4.10931 25.4748 3.52839 25.179C2.46265 24.6359 1.59611 23.7696 1.05319 22.7038C0.757403 22.1232 0.598376 21.4336 0.517531 20.4433C0.436202 19.448 0.43596 18.1879 0.43596 16.4725V9.85C0.43596 8.13484 0.436202 6.87448 0.517531 5.87917C0.598376 4.88894 0.757403 4.19934 1.05319 3.61866C1.59611 2.55292 2.46265 1.68638 3.52839 1.14346C4.10907 0.847675 4.79867 0.688648 5.7889 0.607804C6.78421 0.526475 8.04432 0.526233 9.75973 0.526233Z" stroke="#151918" stroke-width="3" stroke-linejoin="bevel"/>
</g>
</g>
<path d="M37.2645 3.01813H29.117V0.00122737H49.6135L48.8256 3.01813H40.6154V26.0744H37.2659V3.01813H37.2645Z" fill="#151918"/>
<path d="M59.3618 18.8848H51.4711L49.722 26.0735H46.1862L52.9975 0.000306841H57.8735L64.6847 26.0735H61.149L59.3625 18.8848H59.3618ZM58.6546 16.0167L55.3791 2.94309L52.1783 16.0167H58.6546Z" fill="#151918"/>
<path d="M67.7551 0.00036821H71.1047V12.1427C76.9854 11.4724 79.8146 8.00826 79.8513 0.00036821H83.2009C83.2009 6.33257 81.377 10.5785 77.6178 12.851L83.2009 26.0736H79.5531L74.5657 14.1542C73.5237 14.4519 72.3696 14.6756 71.1041 14.7504V26.0736H67.7545V0.00036821H67.7551Z" fill="#151918"/>
<path d="M86.8425 0.000306841H98.9019V3.0172H90.1921V11.3235H97.9339V14.2663H90.1921V23.0566H98.9019V26.0735H86.8425V0.000306841Z" fill="#151918"/>
<path d="M103.17 9.81272C105.17 2.17602 111.279 -1.41835 118.669 0.516364C119.827 0.819456 121.06 1.25339 122.306 1.91365L121.506 4.9686C120.337 4.29165 119.225 3.81498 117.93 3.47651C112.243 1.98776 107.856 4.84576 106.337 10.6425C104.81 16.4741 107.311 21.0979 113.066 22.6046C114.225 22.9077 115.427 23.0372 116.779 23.0199L115.979 26.0748C114.535 26.0308 113.214 25.7958 112.124 25.5107C104.767 23.5854 101.17 17.4508 103.17 9.81406V9.81272Z" fill="#151918"/>
<path d="M132.462 18.9534H124.571L122.822 26.1422H119.286L126.097 0.0689779H130.973L137.785 26.1422H134.249L132.462 18.9534H132.462ZM131.755 16.0854L128.479 3.01177L125.278 16.0854H131.755Z" fill="#151918"/>
<path d="M159.94 0.0689779H172V3.08588H163.29V11.3922H171.032V14.335H163.29V23.1253H172V26.1422H159.94V0.0689779Z" fill="#151918"/>
<path d="M156.301 0.0689779H140.854V26.1422H144.204V14.819C145.469 14.7442 146.624 14.5212 147.666 14.2228L152.653 26.1422H156.301L150.718 12.9196C154.477 10.6478 156.301 6.40118 156.301 0.0689779ZM144.204 12.2113V3.42101H152.738C151.979 9.06759 149.188 11.6432 144.204 12.2113Z" fill="#151918"/>
<defs>
<clipPath id="clip0_0_52">
<rect width="26" height="26" fill="white" transform="translate(0 0.0902727) scale(1.00546)"/>
</clipPath>
</defs>
</svg>
